<svg xmlns="http://www.w3.org/2000/svg" width="964.498" height="1083.209" viewBox="0 0 964.498 1083.209">
  <path id="Path_2" data-name="Path 2" d="M959.514,14.4c-1.255,0-19.433,237.012,68.016,345.109s105.021,118.857,285.992,207.521S1569.23,671.66,1653.035,722.672,1761.545,869.935,1768.42,908.5s40.406,131.271,89.717,162.217c-3.945,0,60.06-2.212,61.7,0,1.579,0,.289-50.137,0-50.757s0-122.474,0-122.474.561-366.967,0-366.769.561-441.716,0-442.1,0-99.473,0-99.473-351.823.425-352.1,0-521.942-1.263-519.473,0-88.745,0-88.745,0Z" transform="translate(-956.609 11.991)" fill="#1f334a" stroke="#707070" stroke-width="1"/>
</svg>
